<?xml version="1.0" encoding="UTF-8" standalone="no"?>
<!-- Created with Inkscape (http://www.inkscape.org/) -->

<svg
   version="1.1"
   id="svg2"
   xml:space="preserve"
   width="2560"
   height="1440"
   viewBox="0 0 2560 1440"
   sodipodi:docname="Ericeira DesignerIII.svg"
   inkscape:version="1.1.2 (0a00cf5339, 2022-02-04)"
   xmlns:inkscape="http://www.inkscape.org/namespaces/inkscape"
   xmlns:sodipodi="http://sodipodi.sourceforge.net/DTD/sodipodi-0.dtd"
   xmlns="http://www.w3.org/2000/svg"
   xmlns:svg="http://www.w3.org/2000/svg"><defs
     id="defs6"><linearGradient
       x1="0"
       y1="0"
       x2="1"
       y2="0"
       gradientUnits="userSpaceOnUse"
       gradientTransform="matrix(-221.03616,-382.84586,-382.84586,221.03616,1092.358,754.37152)"
       spreadMethod="pad"
       id="linearGradient36"><stop
         style="stop-opacity:1;stop-color:#fbcbd1"
         offset="0"
         id="stop24" /><stop
         style="stop-opacity:1;stop-color:#ea8699"
         offset="0.259777"
         id="stop26" /><stop
         style="stop-opacity:1;stop-color:#b85f74"
         offset="0.522346"
         id="stop28" /><stop
         style="stop-opacity:1;stop-color:#ea8699"
         offset="0.776536"
         id="stop30" /><stop
         style="stop-opacity:1;stop-color:#fbcbd1"
         offset="0.99162"
         id="stop32" /><stop
         style="stop-opacity:1;stop-color:#fbcbd1"
         offset="1"
         id="stop34" /></linearGradient></defs><sodipodi:namedview
     id="namedview4"
     pagecolor="#ffffff"
     bordercolor="#666666"
     borderopacity="1.0"
     inkscape:pageshadow="2"
     inkscape:pageopacity="0.0"
     inkscape:pagecheckerboard="0"
     showgrid="false"
     inkscape:zoom="0.45555556"
     inkscape:cx="1280.8537"
     inkscape:cy="720"
     inkscape:window-width="1920"
     inkscape:window-height="1080"
     inkscape:window-x="0"
     inkscape:window-y="0"
     inkscape:window-maximized="1"
     inkscape:current-layer="g8" /><g
     id="g8"
     inkscape:groupmode="layer"
     inkscape:label="Ericeira Designer"
     transform="matrix(1.3333333,0,0,-1.3333333,0,1440)"><g
       id="g125"
       transform="matrix(2.6330322,0,0,2.6330322,-1644.659,-953.74285)"><g
         id="g12"><g
           id="g14"><g
             id="g20"><g
               id="g22"><path
                 d="M 891.024,740.775 C 850.617,736.462 761.093,716.094 726.886,686.4 v 0 c -1.079,-0.605 -1.868,-1.7 -1.991,-2.756 v 0 c -0.293,-1.276 -0.06,-2.522 0.645,-3.443 v 0 c 0.662,-0.859 1.675,-1.352 2.78,-1.352 v 0 c 1.06,0 1.762,0.381 2.325,0.688 v 0 c 0.148,0.081 0.308,0.169 0.495,0.255 v 0 l 0.313,0.19 c 21.591,16.185 46.719,24.943 70.756,32.406 v 0 C 781.788,674.32 765.854,642.587 752.165,612.734 v 0 l -0.127,-0.24 -0.127,-0.06 c -24.156,-6.338 -87.764,-23.049 -107.98,-38.513 v 0 l -0.145,-0.122 c -0.461,-0.435 -1.035,-0.976 -1.584,-2.01 v 0 l -0.105,-0.243 c -0.381,-1.073 -0.173,-2.289 0.57,-3.338 v 0 c 0.784,-1.11 1.972,-1.771 3.18,-1.771 v 0 c 1.059,0 1.762,0.381 2.327,0.688 v 0 c 0.146,0.081 0.307,0.168 0.491,0.257 v 0 l 0.274,0.157 c 6.926,4.892 13.267,7.927 18.521,10.236 v 0 c 6.498,2.676 12.736,4.634 19.988,6.909 v 0 c 18.359,6.101 38.388,12.152 61.187,18.486 v 0 c -7.633,-16.967 -14.497,-33.74 -22.409,-53.592 v 0 c -2.833,-6.487 -5.764,-13.193 -7.852,-20.267 v 0 c -2.927,-10.745 -2.223,-19.695 1.981,-25.198 v 0 c 3.265,-4.271 8.429,-6.437 15.35,-6.437 v 0 c 11.856,0 25.509,5.462 38.47,11.352 v 0 c 34.077,14.86 64.537,35.924 87.795,60.462 v 0 c -3.303,-8.03 -6.134,-16.236 -8.472,-24.624 v 0 c -0.661,-1.854 -0.994,-3.309 -0.994,-4.366 v 0 c 0,-2.252 1.193,-3.51 3.574,-3.772 v 0 c 1.987,0 3.509,1.52 4.568,4.565 v 0 c 10.721,20.912 23.229,36.531 37.523,46.855 v 0 c 5.558,4.102 10.389,6.155 14.494,6.155 v 0 c 3.836,0 6.88,-1.722 9.131,-5.162 v 0 c 0.397,-0.928 1.191,-1.391 2.384,-1.391 v 0 c 1.057,0 1.949,0.43 2.679,1.291 v 0 c 0.726,0.86 1.092,1.753 1.092,2.681 v 0 c 0,2.646 -1.756,5.028 -5.262,7.148 v 0 c -3.507,2.115 -6.783,3.175 -9.826,3.175 v 0 c -1.326,0 -2.65,-0.198 -3.972,-0.595 v 0 c -6.75,-2.118 -12.508,-5.097 -17.272,-8.934 v 0 c -4.764,-3.84 -9.465,-8.274 -14.096,-13.302 v 0 l -5.361,-5.559 c 0.664,2.647 1.523,5.029 2.582,7.147 v 0 c 1.143,2.187 2.033,4.501 2.688,6.934 v 0 c 0.317,0.553 0.387,1.092 0.401,1.478 v 0 c 0.034,0.131 0.039,0.265 0.056,0.398 v 0 l 0.031,0.124 -0.008,0.042 c 0.073,0.826 -0.126,1.657 -0.607,2.339 v 0 c -0.658,0.933 -1.747,1.49 -2.912,1.49 v 0 c -1.535,0 -2.387,-0.801 -3.361,-1.725 v 0 c -2.141,-2.265 -4.053,-4.623 -6.08,-7.12 v 0 c -1.113,-1.371 -2.24,-2.762 -3.389,-4.114 v 0 c -12.903,-14.357 -28.265,-27.916 -45.634,-40.282 v 0 C 805.828,533.42 794.893,526.243 783.334,520.8 v 0 c -7.356,-3.582 -32.412,-15.269 -45.987,-15.269 v 0 c -4.43,0 -7.645,1.293 -9.557,3.844 v 0 c -2.816,3.761 -3.04,10.669 -0.599,19 v 0 c 1.386,5.219 3.373,10.167 5.477,15.405 v 0 l 1.008,2.521 c 9.598,23.04 17.804,41.925 25.778,59.336 v 0 l 0.129,0.242 0.121,0.058 c 21.133,5.353 42.569,10.008 63.756,13.843 v 0 c 12.272,2.476 23.058,4.312 33.957,5.778 v 0 c 1.9,0.275 3.852,0.502 5.839,0.73 v 0 c 3.601,0.417 7.327,0.847 11.082,1.604 v 0 l 0.185,0.048 c 1.771,0.557 2.612,1.357 3.21,3.053 v 0 l 0.061,0.224 c 0.305,1.427 0.106,2.587 -0.591,3.449 v 0 c -1.039,1.284 -2.805,1.433 -4.043,1.433 v 0 c -3.032,0 -7.694,-0.798 -12.203,-1.57 v 0 c -1.843,-0.317 -3.754,-0.696 -5.595,-1.061 v 0 c -2.648,-0.526 -5.147,-1.023 -7.107,-1.255 v 0 c -27.242,-4.396 -55.039,-10.234 -84.832,-17.811 v 0 c 14.932,31.145 29.746,61.658 46.442,92.336 v 0 l 0.221,0.312 c 2.471,0.038 4.634,1.313 5.279,3.129 v 0 l 0.104,0.293 v 2.242 c 0,0.642 0,1.397 -0.235,2.208 v 0 c 3.771,1.176 7.526,2.121 11.16,3.037 v 0 l 2.875,0.729 c 36.557,8.804 70.375,13.083 103.387,13.083 v 0 h 9.742 c 2.97,-0.35 5.868,-0.731 8.664,-1.482 v 0 c 5.887,-1.583 9.076,-4.968 9.745,-10.345 v 0 c 0.003,-1.054 0.106,-3.239 3.032,-3.239 v 0 c 3.574,0 4.731,2.725 5.352,4.19 v 0 l 0.144,0.337 v 0.753 c 0,0.378 0,1.062 -0.414,1.769 v 0 c -0.012,0.945 -0.088,1.789 -0.535,2.491 v 0 c -2.107,9.162 -11.213,15.001 -25.701,16.463 v 0 l -0.182,0.009 c -1.54,0 -3.087,0.087 -4.721,0.181 v 0 c -1.761,0.101 -3.583,0.205 -5.537,0.205 v 0 c -12.964,0 -26.879,-1.1 -41.221,-2.328 m 314.081,-65.072 c -8.734,-6.487 -16.081,-14.429 -22.038,-23.825 v 0 c -3.442,-4.899 -5.359,-9.861 -5.757,-14.89 v 0 c 0,-6.089 5.228,-10.324 15.686,-12.707 v 0 c 0.66,-0.266 0.991,-0.729 0.991,-1.389 v 0 c -0.132,-0.397 -1.458,-2.715 -3.971,-6.949 v 0 c -8.603,-13.236 -18.066,-25.943 -28.39,-38.119 v 0 c -8.869,-10.854 -17.54,-19.59 -26.009,-26.207 v 0 c -1.717,-1.324 -3.574,-2.183 -5.558,-2.58 v 0 c -1.717,0 -2.711,0.993 -2.978,2.977 v 0 l -0.2,2.184 c 1.048,8.838 3.169,17.32 6.363,25.444 v 0 c 0.289,0.42 0.508,0.764 0.587,0.961 v 0 c 0.106,0.107 0.16,0.437 0.18,0.898 v 0 c 0.206,0.495 0.399,0.993 0.614,1.486 v 0 c 0.794,1.321 1.192,2.711 1.192,4.168 v 0 c 0,1.455 -0.863,2.184 -2.581,2.184 v 0 c -1.302,0 -2.992,-1.739 -5.064,-5.199 v 0 c -2.389,-1.816 -5.911,-5.675 -10.62,-11.676 v 0 c -12.443,-15.355 -24.024,-26.604 -34.745,-33.752 v 0 c -4.764,-3.707 -10.324,-5.559 -16.677,-5.559 v 0 h -1.389 c -2.382,0 -4.433,0.924 -6.155,2.781 v 0 c -1.986,2.909 -2.977,5.955 -2.977,9.132 v 0 c 0,1.058 0.098,2.115 0.298,3.176 v 0 c 0.196,1.059 0.96,1.654 2.281,1.788 v 0 c 3.048,0 5.956,0.725 8.736,2.183 v 0 c 7.942,3.838 14.824,9.132 20.648,15.883 v 0 c 5.426,6.219 8.206,13.035 8.34,20.449 v 0 c 0,3.837 -1.261,6.781 -3.773,8.834 v 0 c -2.516,2.052 -5.097,3.078 -7.744,3.078 v 0 c -0.927,0 -1.755,-0.134 -2.481,-0.396 v 0 c -0.728,-0.268 -1.226,-0.467 -1.488,-0.597 v 0 c -0.269,-0.132 -0.531,-0.266 -0.795,-0.397 v 0 c -4.368,-1.588 -8.208,-4.236 -11.515,-7.942 v 0 c -2.888,-3.1 -5.455,-6.351 -7.743,-9.733 v 0 c -1.234,-1.165 -2.681,-2.733 -4.37,-4.758 v 0 l -6.751,-7.148 c -19.192,-21.045 -34.016,-34.018 -44.471,-38.913 v 0 c -3.176,-1.589 -6.418,-2.516 -9.728,-2.781 v 0 c -1.985,0 -3.737,0.528 -5.261,1.589 v 0 c -1.521,1.058 -2.612,2.78 -3.276,5.162 v 0 c -0.397,0.528 -0.596,2.447 -0.596,5.758 v 0 c 0,2.383 0.267,4.765 0.794,7.147 v 0 c 3.047,12.97 8.408,24.684 16.082,35.142 v 0 c 5.559,6.749 10.257,10.85 14.096,12.308 v 0 c 0.131,0 0.364,0.065 0.696,0.199 v 0 c 0.327,0.131 0.823,0.198 1.487,0.198 v 0 c 1.986,0 2.979,-1.126 2.979,-3.375 v 0 c -0.529,-6.222 -2.185,-11.649 -4.963,-16.28 v 0 c -0.927,-1.588 -1.391,-2.779 -1.391,-3.573 v 0 c 0,-0.794 0.299,-1.459 0.894,-1.986 v 0 c 0.596,-0.529 1.292,-0.794 2.085,-0.794 v 0 c 1.454,0 2.712,0.859 3.771,2.581 v 0 c 4.766,7.014 7.149,14.494 7.149,22.435 v 0 c -1.192,5.822 -4.369,8.736 -9.53,8.736 v 0 c -3.706,0 -7.082,-1.126 -10.126,-3.375 v 0 c -4.634,-2.914 -8.537,-6.487 -11.713,-10.722 v 0 c -1.417,-1.799 -2.739,-3.64 -4.018,-5.5 v 0 c -0.659,-0.612 -1.362,-1.391 -2.137,-2.442 v 0 l -16.081,-20.845 c -7.146,-9.927 -14.959,-17.143 -23.427,-21.641 v 0 c -2.118,-1.062 -4.833,-1.588 -8.139,-1.588 v 0 c -3.177,0.129 -5.427,1.654 -6.75,4.565 v 0 c -0.795,1.72 -1.191,3.308 -1.191,4.766 v 0 c 0,1.455 -0.065,2.845 -0.198,4.169 v 0 c 0,3.043 0.329,6.022 0.992,8.934 v 0 c 2.251,10.454 5.823,22.302 10.72,35.538 v 0 l 0.199,2.78 c 0,1.058 -0.531,1.786 -1.587,2.183 v 0 c -0.399,0.264 -0.796,0.398 -1.193,0.398 v 0 c -0.794,0 -1.358,-0.198 -1.688,-0.595 v 0 c -0.331,-0.397 -0.663,-0.794 -0.991,-1.192 v 0 c -0.329,-0.397 -0.562,-0.763 -0.696,-1.093 v 0 c -0.129,-0.332 -0.263,-0.629 -0.397,-0.893 v 0 C 934.237,581 929.804,565.779 928.346,550.823 v 0 c 0,-5.428 0.728,-9.53 2.185,-12.309 v 0 c 2.778,-5.692 7.28,-8.736 13.501,-9.133 v 0 h 0.991 c 10.721,0 22.301,7.744 34.744,23.229 v 0 l 0.31,0.41 c -0.985,-3.248 -1.502,-6.494 -1.502,-9.741 v 0 l 0.198,-8.14 c 0.397,-4.501 2.119,-8.076 5.162,-10.722 v 0 c 3.047,-2.648 6.619,-3.969 10.722,-3.969 v 0 l 3.573,0.396 c 10.851,1.191 26.073,11.844 45.664,31.965 v 0 l 6.424,6.794 c -0.85,-3.048 -1.566,-6.159 -2.056,-9.375 v 0 l -0.197,-3.772 c 0,-2.78 0.395,-5.494 1.189,-8.141 v 0 c 2.382,-8.471 7.943,-12.706 16.677,-12.706 v 0 h 1.589 c 13.631,0.794 29.782,11.912 48.443,33.354 v 0 l 5.368,6.314 c -0.853,-3.657 -1.456,-7.351 -1.794,-11.079 v 0 c 0,-1.721 0.267,-3.642 0.794,-5.757 v 0 c 1.457,-4.635 4.237,-6.95 8.337,-6.95 v 0 c 2.516,0.265 4.833,0.861 6.949,1.788 v 0 c 4.235,2.383 9.199,6.22 14.89,11.515 v 0 c 17.339,17.736 33.157,37.787 47.451,60.156 v 0 c 0.397,0.528 0.726,1.093 0.993,1.688 v 0 c 0.263,0.595 1.122,2.017 2.58,4.268 v 0 c 0.795,1.191 1.917,1.787 3.375,1.787 v 0 c 2.514,0 3.773,-1.06 3.773,-3.176 v 0 c 0,-2.119 -0.961,-5.196 -2.879,-9.232 v 0 c -1.92,-4.04 -3.805,-7.975 -5.658,-11.813 v 0 c -17.075,-31.899 -29.583,-65.982 -37.524,-102.246 v 0 c -2.118,-9.263 -3.175,-16.808 -3.175,-22.633 v 0 -0.12 c -1.386,-1.69 -2.578,-3.545 -3.565,-5.573 v 0 10.058 h -12.654 v -0.678 c 2.258,0 3.802,-0.359 4.631,-1.074 v 0 c 0.828,-0.717 1.243,-2.054 1.243,-4.011 v 0 -46.669 c 0,-1.959 -0.415,-3.296 -1.243,-4.011 v 0 c -0.829,-0.716 -2.373,-1.073 -4.631,-1.073 v 0 -0.678 h 18.531 v 0.678 c -2.261,0 -3.804,0.357 -4.633,1.073 v 0 c -0.831,0.715 -1.244,2.052 -1.244,4.011 v 0 37.29 c 0.454,1.957 1.074,3.842 1.866,5.649 v 0 c 0.497,1.135 1.082,2.159 1.712,3.13 v 0 c 0.037,-2.921 0.163,-4.782 0.383,-5.547 v 0 c 0.795,-6.086 3.045,-9.132 6.75,-9.132 v 0 c 1.454,0 2.68,0.396 3.673,1.191 v 0 c 0.993,0.794 1.489,1.588 1.489,2.383 v 0 c 0,1.061 -0.793,1.985 -2.381,2.779 v 0 c -1.589,0.793 -2.418,2.019 -2.483,3.673 v 0 c -0.068,1.657 -0.098,3.344 -0.098,5.062 v 0 c 0,1.914 0.083,3.77 0.207,5.601 v 0 c 0.672,0.149 1.369,0.239 2.103,0.239 v 0 c 2.561,0 4.991,-1.091 7.288,-3.277 v 0 c 2.298,-2.185 4.352,-5.951 6.159,-11.299 v 0 l 0.679,0.112 -1.584,15.142 h -0.676 c -0.528,-1.432 -1.395,-2.148 -2.6,-2.148 v 0 c -1.206,0 -2.468,0.359 -3.786,1.074 v 0 c -1.319,0.716 -3.071,1.074 -5.253,1.074 v 0 c -0.796,0 -1.548,-0.07 -2.273,-0.188 v 0 c 0.276,3.603 0.765,7.065 1.522,10.347 v 0 c 5.956,30.973 16.013,61.28 30.177,90.93 v 0 c 8.34,16.28 13.898,27.794 16.677,34.545 v 0 c 0.527,1.986 0.794,4.433 0.794,7.346 v 0 c -0.267,2.779 -1.722,4.929 -4.367,6.452 v 0 c -2.65,1.52 -3.971,2.349 -3.971,2.482 v 0 c 0,0.661 3.307,7.544 9.927,20.647 v 0 c 4.234,8.736 6.354,15.75 6.354,21.046 v 0 c -0.398,6.086 -2.78,9.132 -7.148,9.132 v 0 c -4.765,-0.664 -8.737,-2.515 -11.913,-5.558 m -16.677,-42.487 c -2.251,0.794 -3.375,2.184 -3.375,4.169 v 0 c 0,3.573 2.15,8.27 6.453,14.096 v 0 c 4.299,5.823 9.231,11.184 14.791,16.081 v 0 c 3.837,3.441 6.816,5.361 8.934,5.758 v 0 c 1.058,0 1.588,-0.53 1.588,-1.588 v 0 c -0.133,-2.119 -0.53,-3.907 -1.191,-5.36 v 0 l -0.397,-1.589 c -2.118,-7.678 -6.95,-17.936 -14.494,-30.773 v 0 c -1.06,-1.985 -2.713,-2.978 -4.963,-2.978 v 0 z m -129.842,-75.643 c -0.398,0.397 -0.596,0.794 -0.596,1.191 v 0 c 0.267,1.852 0.73,3.441 1.39,4.766 v 0 c 3.31,8.205 7.943,15.616 13.899,22.236 v 0 c 3.042,3.703 6.748,6.021 11.116,6.948 v 0 c 0.793,0 1.522,-0.232 2.186,-0.695 v 0 c 0.659,-0.465 1.055,-0.961 1.19,-1.489 v 0 c 0.13,-0.53 0.198,-0.962 0.198,-1.289 v 0 c 0,-0.332 0.065,-0.631 0.199,-0.895 v 0 c 0,-5.691 -2.45,-11.217 -7.345,-16.578 v 0 c -4.9,-5.36 -10.458,-9.827 -16.679,-13.401 v 0 c -1.19,-0.927 -2.581,-1.389 -4.169,-1.389 v 0 c -0.527,0 -0.991,0.198 -1.389,0.595 m -107.21,59.76 c -1.855,-1.458 -2.779,-3.177 -2.779,-5.162 v 0 c 0,-1.985 0.924,-3.111 2.779,-3.375 v 0 l 0.795,0.397 c 1.718,0.527 2.977,2.447 3.771,5.757 v 0 c 0,0.794 -0.465,1.589 -1.389,2.383 v 0 c -0.396,0.263 -0.927,0.397 -1.588,0.397 v 0 c -0.794,0 -1.324,-0.134 -1.589,-0.397 m 187.616,-6.552 c -2.117,-3.31 -3.508,-7.083 -4.169,-11.317 v 0 c 0,-0.663 0.066,-1.091 0.2,-1.291 v 0 c 0.13,-0.197 0.298,-0.43 0.496,-0.694 v 0 c 0.197,-0.267 0.496,-0.466 0.893,-0.595 v 0 l 0.993,-0.198 c 0.793,0 1.587,0.461 2.382,1.389 v 0 c 1.322,1.455 2.979,5.028 4.963,10.721 v 0 l 0.199,1.191 c 0,0.661 -0.298,1.256 -0.894,1.787 v 0 c -0.596,0.528 -1.289,0.794 -2.085,0.794 v 0 c -1.19,-0.397 -2.183,-0.993 -2.978,-1.787 m 112.373,-7.742 c -5.164,-1.986 -9.997,-4.766 -14.494,-8.339 v 0 c -12.573,-9.53 -22.83,-21.179 -30.773,-34.942 v 0 c -3.177,-5.957 -4.894,-10.721 -5.162,-14.295 v 0 c 0,-1.723 0.531,-3.145 1.588,-4.269 v 0 c 1.061,-1.126 2.382,-1.687 3.973,-1.687 v 0 c 1.984,0 4.235,0.993 6.75,2.978 v 0 c 3.175,2.512 6.153,5.161 8.933,7.941 v 0 l 18.464,17.869 c 7.014,6.75 14.359,13.102 22.038,19.058 v 0 c 4.235,3.177 7.411,5.029 9.528,5.56 v 0 c 0.529,-0.133 0.794,-0.663 0.794,-1.588 v 0 c -0.131,-1.459 -0.395,-2.78 -0.794,-3.972 v 0 l -4.764,-14.492 c -2.516,-8.338 -4.303,-15.752 -5.361,-22.236 v 0 l -0.991,-5.956 0.595,-2.78 c 1.19,-7.281 4.63,-11.251 10.322,-11.912 v 0 h 1.193 c 2.247,0 4.299,0.328 6.155,0.993 v 0 c 3.572,0.925 6.75,2.581 9.528,4.964 v 0 c 8.867,6.75 18.862,15.218 29.98,25.411 v 0 l 13.698,13.104 c 2.646,3.176 3.973,5.361 3.973,6.551 v 0 c 0,0.925 -0.333,1.688 -0.994,2.284 v 0 c -0.664,0.595 -1.39,0.893 -2.184,0.893 v 0 c -1.191,0 -3.177,-1.389 -5.957,-4.168 v 0 c -6.088,-6.354 -12.64,-12.509 -19.654,-18.465 v 0 c -6.091,-5.559 -12.377,-11.053 -18.862,-16.478 v 0 c -6.353,-4.899 -11.315,-7.347 -14.889,-7.347 v 0 c -2.119,0.131 -3.509,1.059 -4.17,2.781 v 0 0.396 c -0.265,0.795 -0.396,1.589 -0.396,2.383 v 0 c 0,3.837 0.328,7.609 0.991,11.316 v 0 c 1.986,8.206 4.3,16.28 6.95,24.222 v 0 c 2.512,6.881 3.772,11.911 3.772,15.089 v 0 l -0.198,1.588 c -0.134,3.176 -1.921,5.094 -5.362,5.757 v 0 l -1.388,0.397 -1.588,-0.198 c -1.327,0 -2.452,0.463 -3.376,1.389 v 0 c -2.252,1.719 -4.899,2.582 -7.941,2.582 v 0 c -3.443,-0.133 -6.751,-0.928 -9.927,-2.382 m -37.127,-44.473 0.596,1.192 c 9.927,15.616 22.499,27.595 37.722,35.934 v 0 c 2.513,1.321 5.227,2.184 8.14,2.581 v 0 c 1.587,0 2.382,-0.198 2.382,-0.595 v 0 c -0.134,-0.531 -0.366,-0.928 -0.696,-1.192 v 0 c -0.331,-0.267 -0.563,-0.465 -0.693,-0.595 v 0 c -14.429,-10.721 -30.113,-24.817 -47.054,-42.288 v 0 c -1.057,-1.589 -2.581,-2.715 -4.566,-3.375 v 0 c 1.061,3.177 2.45,5.956 4.169,8.338 M 809.546,516.942 v -0.678 c 2.26,0 3.804,-0.36 4.634,-1.073 v 0 c 0.828,-0.718 1.242,-2.054 1.242,-4.013 v 0 -35.707 c -3.916,2.034 -8.06,3.051 -12.429,3.051 v 0 c -3.995,0 -7.648,-0.847 -10.962,-2.542 v 0 c -3.313,-1.694 -6.197,-3.937 -8.643,-6.724 v 0 c -2.449,-2.788 -4.445,-5.951 -5.989,-9.491 v 0 c -1.544,-3.541 -2.506,-6.706 -2.881,-9.491 v 0 c -0.379,-2.79 -0.566,-5.086 -0.566,-6.894 v 0 c 0,-1.808 0.187,-4.05 0.566,-6.723 v 0 c 0.375,-2.675 1.394,-5.406 3.05,-8.192 v 0 c 1.657,-2.788 3.915,-5.029 6.779,-6.723 v 0 c 2.864,-1.695 6.405,-2.543 10.623,-2.543 v 0 c 4.971,0 9.322,1.017 13.051,3.05 v 0 c 3.729,2.034 6.195,4.746 7.401,8.136 v 0 -10.621 h 12.655 v 0.678 c -2.259,0 -3.804,0.357 -4.631,1.073 v 0 c -0.831,0.715 -1.242,2.052 -1.242,4.011 v 0 91.416 z m -22.713,-92.037 c -2.71,2.825 -4.425,5.875 -5.14,9.153 v 0 c -0.716,3.277 -1.074,6.233 -1.074,8.871 v 0 c 0,2.034 0.263,4.839 0.792,8.418 v 0 c 0.525,3.577 1.824,7.475 3.898,11.694 v 0 c 2.071,4.218 4.745,7.741 8.024,10.566 v 0 c 3.276,2.824 6.948,4.237 11.016,4.237 v 0 c 2.108,0 4.142,-0.396 6.103,-1.186 v 0 c 1.955,-0.791 3.615,-1.827 4.97,-3.108 v 0 -38.645 c 0,-2.034 -0.433,-3.917 -1.298,-5.649 v 0 c -0.868,-1.734 -2.075,-3.24 -3.616,-4.52 v 0 c -1.547,-1.282 -3.373,-2.279 -5.481,-2.994 v 0 c -2.111,-0.717 -4.407,-1.074 -6.894,-1.074 v 0 c -4.822,0 -8.586,1.413 -11.3,4.237 m 159.722,72.657 c -0.867,-0.865 -1.3,-2.053 -1.3,-3.558 v 0 c 0,-1.433 0.433,-2.582 1.3,-3.447 v 0 c 0.865,-0.867 2.013,-1.3 3.446,-1.3 v 0 c 1.431,0 2.58,0.433 3.446,1.3 v 0 c 0.866,0.865 1.3,2.014 1.3,3.447 v 0 c 0,1.505 -0.434,2.693 -1.3,3.558 v 0 c -0.866,0.865 -2.015,1.3 -3.446,1.3 v 0 c -1.433,0 -2.581,-0.435 -3.446,-1.3 m 54.634,-12.711 v -0.679 c 0.677,0 1.394,-0.039 2.147,-0.113 v 0 c 0.753,-0.076 1.429,-0.264 2.032,-0.565 v 0 c 0.603,-0.301 1.113,-0.697 1.527,-1.187 v 0 c 0.413,-0.49 0.62,-1.186 0.62,-2.09 v 0 c 0,-0.754 -0.15,-1.582 -0.45,-2.485 v 0 c -0.303,-0.905 -0.719,-1.922 -1.244,-3.052 v 0 c -1.959,1.205 -4.106,2.147 -6.439,2.825 v 0 c -2.337,0.679 -4.936,1.017 -7.798,1.017 v 0 c -4.445,0 -8.325,-0.811 -11.639,-2.429 v 0 c -3.315,-1.621 -6.045,-3.728 -8.192,-6.328 v 0 c -2.148,-2.599 -3.729,-5.499 -4.745,-8.7 v 0 c -1.018,-3.204 -1.528,-6.347 -1.528,-9.436 v 0 c 0,-0.302 0.038,-1.395 0.113,-3.277 v 0 c 0.076,-1.884 0.717,-4.463 1.921,-7.74 v 0 c 1.205,-3.277 2.978,-6.158 5.312,-8.644 v 0 c -1.734,-1.884 -3.353,-3.769 -4.859,-5.651 v 0 c -1.508,-1.882 -2.317,-3.239 -2.431,-4.068 v 0 c -0.112,-0.829 -0.166,-1.318 -0.166,-1.468 v 0 c 0,-1.28 0.789,-2.374 2.37,-3.277 v 0 c 1.583,-0.905 4.672,-1.356 9.267,-1.356 v 0 c 1.43,0 2.938,0.019 4.519,0.057 v 0 c 1.583,0.039 2.862,0.056 3.843,0.056 v 0 c 1.431,0 3.163,-0.037 5.197,-0.113 v 0 c 2.034,-0.074 4.352,-0.3 6.951,-0.677 v 0 c 2.598,-0.377 4.931,-1.017 7.004,-1.921 v 0 c 2.073,-0.905 3.768,-2.091 5.085,-3.561 v 0 c 1.318,-1.468 1.978,-3.371 1.978,-5.706 v 0 c 0,-2.56 -0.754,-4.613 -2.26,-6.157 v 0 c -1.507,-1.544 -3.371,-2.731 -5.594,-3.562 v 0 c -2.223,-0.827 -4.559,-1.372 -7.005,-1.638 v 0 c -2.449,-0.262 -4.577,-0.394 -6.385,-0.394 v 0 c -5.952,0 -11.129,1.149 -15.536,3.446 v 0 c -4.407,2.299 -7.667,6.235 -9.775,11.808 v 0 h -0.678 l 2.261,-15.82 h 0.678 c 0.149,0.98 0.601,1.622 1.356,1.921 v 0 c 0.752,0.302 1.541,0.453 2.373,0.453 v 0 c 1.655,0 3.276,-0.151 4.858,-0.453 v 0 c 1.581,-0.299 3.22,-0.621 4.914,-0.961 v 0 c 1.698,-0.338 3.449,-0.658 5.256,-0.96 v 0 c 1.808,-0.299 3.73,-0.451 5.763,-0.451 v 0 c 2.259,0 4.915,0.17 7.965,0.508 v 0 c 3.053,0.339 5.951,0.999 8.702,1.977 v 0 c 2.748,0.981 5.084,2.355 7.005,4.126 v 0 c 1.921,1.769 2.882,4.087 2.882,6.948 v 0 c 0,2.412 -0.678,4.369 -2.034,5.876 v 0 c -1.357,1.508 -3.127,2.712 -5.31,3.615 v 0 c -2.187,0.906 -4.634,1.546 -7.346,1.922 v 0 c -2.712,0.378 -5.047,0.584 -7.006,0.622 v 0 c -1.958,0.038 -3.577,0.056 -4.858,0.056 v 0 c -1.206,0 -2.696,-0.018 -4.464,-0.056 v 0 c -1.77,-0.038 -3.372,-0.057 -4.803,-0.057 v 0 c -3.389,0 -5.97,0.378 -7.739,1.13 v 0 c -1.772,0.754 -2.863,1.638 -3.278,2.655 v 0 c -0.415,1.017 -0.62,1.902 -0.62,2.655 v 0 c 0,0.678 0.186,1.638 0.563,2.882 v 0 c 0.377,1.244 1.132,2.768 2.261,4.577 v 0 c 2.184,-2.034 4.747,-3.655 7.684,-4.86 v 0 c 2.939,-1.206 6.329,-1.808 10.17,-1.808 v 0 c 4.745,0 8.851,0.922 12.316,2.769 v 0 c 3.465,1.846 6.272,4.256 8.419,7.232 v 0 c 2.147,2.975 3.576,5.988 4.295,9.04 v 0 c 0.714,3.051 1.072,5.78 1.072,8.193 v 0 c 0,1.279 -0.17,3.181 -0.509,5.706 v 0 c -0.34,2.522 -1.396,5.424 -3.163,8.7 v 0 c -1.771,3.277 -4.201,6.006 -7.288,8.193 v 0 l 0.676,1.017 c 0.603,0.978 1.302,1.996 2.091,3.051 v 0 c 0.791,1.053 1.677,2.033 2.656,2.937 v 0 c 0.978,0.905 2.052,1.639 3.219,2.203 v 0 c 1.168,0.566 2.356,0.848 3.56,0.848 v 0 0.679 z M 972.94,442.872 c -0.452,2.673 -0.679,5.102 -0.679,7.288 v 0 c 0,0.904 0.074,2.391 0.227,4.463 v 0 c 0.148,2.072 0.695,4.615 1.638,7.628 v 0 c 0.94,3.012 2.22,5.687 3.841,8.022 v 0 c 1.62,2.334 3.559,4.199 5.82,5.594 v 0 c 2.26,1.393 4.858,2.091 7.797,2.091 v 0 c 2.635,0 5.009,-0.566 7.119,-1.695 v 0 c 2.107,-1.13 3.955,-2.675 5.536,-4.633 v 0 c -1.656,-2.938 -3.786,-6.141 -6.385,-9.605 v 0 c -2.598,-3.466 -5.216,-6.856 -7.851,-10.17 v 0 c -2.64,-3.315 -5.143,-6.328 -7.514,-9.039 v 0 c -2.375,-2.712 -4.203,-4.823 -5.482,-6.329 v 0 l -1.356,-1.468 c -1.356,2.559 -2.26,5.178 -2.711,7.853 m 9.378,-15.424 c -2.562,1.732 -4.633,3.991 -6.215,6.78 v 0 l 0.113,0.113 v 0.113 h 0.114 v 0.112 l 0.112,0.113 0.114,0.114 v 0.112 h 0.112 v 0.114 l 0.114,0.113 c 0.225,0.299 0.488,0.602 0.79,0.904 v 0 c 4.895,5.65 9.622,11.336 14.182,17.062 v 0 c 4.556,5.724 8.87,11.675 12.938,17.853 v 0 c 1.808,-2.411 3.22,-5.217 4.237,-8.418 v 0 c 1.017,-3.203 1.582,-5.858 1.695,-7.966 v 0 c 0.114,-2.11 0.17,-3.542 0.17,-4.293 v 0 c 0,-2.638 -0.283,-5.425 -0.848,-8.362 v 0 c -0.565,-2.939 -1.639,-5.706 -3.22,-8.306 v 0 c -1.582,-2.6 -3.636,-4.708 -6.159,-6.327 v 0 c -2.525,-1.621 -5.52,-2.43 -8.983,-2.43 v 0 c -3.616,0 -6.706,0.865 -9.266,2.599 m 123.615,49.379 c -3.389,-1.13 -6.46,-2.901 -9.209,-5.31 v 0 c -2.75,-2.412 -4.991,-5.5 -6.721,-9.266 v 0 c -1.735,-3.769 -2.601,-8.25 -2.601,-13.447 v 0 c 0,-4.219 0.658,-8.136 1.979,-11.751 v 0 c 1.316,-3.616 3.219,-6.743 5.706,-9.378 v 0 c 2.486,-2.639 5.48,-4.71 8.982,-6.217 v 0 c 3.502,-1.506 7.439,-2.259 11.809,-2.259 v 0 c 5.348,0 10.114,1.412 14.293,4.237 v 0 c 4.181,2.825 7.024,6.837 8.532,12.034 v 0 l -0.566,0.226 c -1.505,-4.369 -4.049,-7.892 -7.627,-10.566 v 0 c -3.578,-2.673 -7.74,-4.009 -12.485,-4.009 v 0 c -5.649,0 -10.321,1.372 -14.013,4.123 v 0 c -3.69,2.749 -6.366,6.346 -8.023,10.792 v 0 c 0.83,1.808 2.393,3.294 4.69,4.463 v 0 c 2.297,1.166 4.934,2.24 7.91,3.221 v 0 c 2.976,0.977 6.083,1.957 9.323,2.937 v 0 c 3.239,0.979 6.194,2.204 8.87,3.673 v 0 c 2.673,1.468 4.877,3.276 6.611,5.424 v 0 c 1.733,2.147 2.598,4.839 2.598,8.079 v 0 c 0,1.957 -0.451,3.822 -1.356,5.593 v 0 c -0.903,1.77 -2.204,3.333 -3.898,4.69 v 0 c -1.695,1.355 -3.787,2.429 -6.273,3.22 v 0 c -2.484,0.792 -5.31,1.186 -8.473,1.186 v 0 c -3.317,0 -6.668,-0.564 -10.058,-1.695 m -11.976,-28.588 c 0,4.896 0.677,9.191 2.032,12.882 v 0 c 1.358,3.69 3.109,6.779 5.256,9.266 v 0 c 2.147,2.486 4.537,4.35 7.175,5.593 v 0 c 2.635,1.243 5.198,1.864 7.684,1.864 v 0 c 4.745,0 8.153,-1.413 10.227,-4.237 v 0 c 2.07,-2.825 3.107,-6.497 3.107,-11.017 v 0 c 0,-3.091 -0.698,-5.65 -2.091,-7.684 v 0 c -1.396,-2.034 -3.184,-3.729 -5.367,-5.085 v 0 c -2.187,-1.356 -4.616,-2.486 -7.288,-3.39 v 0 c -2.675,-0.904 -5.256,-1.771 -7.741,-2.599 v 0 c -2.485,-0.83 -4.765,-1.695 -6.837,-2.599 v 0 c -2.072,-0.904 -3.634,-2.073 -4.688,-3.503 v 0 c -0.98,3.165 -1.469,6.667 -1.469,10.509 m -45.707,27.967 c -3.879,-1.544 -7.552,-3.22 -11.017,-5.028 v 0 6.78 h -12.655 v -0.678 c 2.258,0 3.802,-0.359 4.631,-1.074 v 0 c 0.828,-0.717 1.242,-2.054 1.242,-4.011 v 0 -46.669 c 0,-1.959 -0.414,-3.296 -1.242,-4.011 v 0 c -0.829,-0.716 -2.373,-1.073 -4.631,-1.073 v 0 -0.678 h 18.531 v 0.678 c -2.26,0 -3.803,0.357 -4.634,1.073 v 0 c -0.829,0.715 -1.242,2.052 -1.242,4.011 v 0 43.617 c 2.861,1.958 5.892,3.786 9.095,5.481 v 0 c 3.202,1.696 6.498,2.543 9.889,2.543 v 0 c 4.068,0 7.231,-1.47 9.492,-4.408 v 0 c 2.259,-2.937 3.389,-7.081 3.389,-12.43 v 0 -34.803 c 0,-1.959 -0.415,-3.296 -1.242,-4.011 v 0 c -0.83,-0.716 -2.374,-1.073 -4.634,-1.073 v 0 -0.678 h 18.53 v 0.678 c -2.258,0 -3.803,0.357 -4.631,1.073 v 0 c -0.83,0.715 -1.243,2.052 -1.243,4.011 v 0 34.803 c 0,5.801 -1.394,10.284 -4.18,13.447 v 0 c -2.789,3.165 -6.743,4.746 -11.865,4.746 v 0 c -3.842,0 -7.703,-0.772 -11.583,-2.316 m -145.029,1.186 c -2.487,-0.753 -4.652,-1.808 -6.498,-3.163 v 0 c -1.846,-1.356 -3.295,-2.938 -4.349,-4.746 v 0 c -1.055,-1.808 -1.584,-3.729 -1.584,-5.763 v 0 c 0,-2.562 0.753,-4.596 2.261,-6.102 v 0 c 1.506,-1.507 3.427,-2.751 5.763,-3.729 v 0 c 2.334,-0.979 4.934,-1.808 7.796,-2.486 v 0 c 2.862,-0.679 5.652,-1.432 8.363,-2.26 v 0 c 4.896,-1.507 8.38,-3.371 10.451,-5.593 v 0 c 2.073,-2.223 3.11,-5.254 3.11,-9.096 v 0 c 0,-4.596 -1.377,-8.156 -4.125,-10.679 v 0 c -2.75,-2.525 -6.649,-3.785 -11.696,-3.785 v 0 c -2.187,0 -4.388,0.263 -6.611,0.791 v 0 c -2.223,0.525 -4.314,1.393 -6.269,2.599 v 0 c -1.961,1.204 -3.694,2.749 -5.201,4.633 v 0 c -1.505,1.881 -2.597,4.217 -3.277,7.006 v 0 l -0.678,-0.114 1.584,-15.028 0.677,-0.113 c 0.377,1.43 1.358,2.147 2.939,2.147 v 0 c 0.827,0 1.824,-0.133 2.993,-0.396 v 0 c 1.168,-0.265 2.544,-0.564 4.125,-0.904 v 0 c 1.581,-0.339 3.352,-0.659 5.311,-0.96 v 0 c 1.958,-0.301 4.106,-0.452 6.441,-0.452 v 0 c 2.937,0 5.688,0.377 8.248,1.13 v 0 c 2.562,0.751 4.784,1.788 6.667,3.107 v 0 c 1.881,1.318 3.352,2.919 4.408,4.803 v 0 c 1.053,1.882 1.582,3.954 1.582,6.215 v 0 c 0,1.731 -0.358,3.294 -1.074,4.689 v 0 c -0.717,1.393 -1.885,2.692 -3.504,3.899 v 0 c -1.619,1.203 -3.728,2.353 -6.326,3.445 v 0 c -2.599,1.093 -5.784,2.204 -9.548,3.334 v 0 c -6.178,1.958 -10.624,4.125 -13.334,6.498 v 0 c -2.712,2.372 -4.067,5.404 -4.067,9.096 v 0 c 0,3.841 1.204,6.873 3.615,9.096 v 0 c 2.408,2.222 5.649,3.333 9.717,3.333 v 0 c 2.261,0 4.5,-0.282 6.723,-0.847 v 0 c 2.22,-0.566 4.255,-1.469 6.102,-2.711 v 0 c 1.846,-1.244 3.484,-2.808 4.914,-4.69 v 0 c 1.431,-1.884 2.487,-4.181 3.166,-6.893 v 0 l 0.676,0.113 -1.581,15.142 h -0.677 c -0.379,-1.432 -1.357,-2.148 -2.939,-2.148 v 0 c -1.281,0 -2.543,0.151 -3.785,0.453 v 0 c -1.243,0.3 -2.524,0.621 -3.842,0.96 v 0 c -1.317,0.339 -2.694,0.639 -4.125,0.905 v 0 c -1.43,0.262 -2.936,0.394 -4.518,0.394 v 0 c -2.863,0 -5.536,-0.378 -8.024,-1.13 m -50.961,-0.565 c -3.389,-1.13 -6.461,-2.901 -9.208,-5.31 v 0 c -2.754,-2.412 -4.993,-5.5 -6.725,-9.266 v 0 c -1.735,-3.769 -2.6,-8.25 -2.6,-13.447 v 0 c 0,-4.219 0.66,-8.136 1.978,-11.751 v 0 c 1.317,-3.616 3.221,-6.743 5.706,-9.378 v 0 c 2.487,-2.639 5.482,-4.71 8.985,-6.217 v 0 c 3.501,-1.506 7.438,-2.259 11.807,-2.259 v 0 c 5.347,0 10.113,1.412 14.294,4.237 v 0 c 4.182,2.825 7.025,6.837 8.531,12.034 v 0 l -0.564,0.226 c -1.508,-4.369 -4.052,-7.892 -7.626,-10.566 v 0 c -3.582,-2.673 -7.742,-4.009 -12.489,-4.009 v 0 c -5.649,0 -10.321,1.372 -14.01,4.123 v 0 c -3.693,2.749 -6.366,6.346 -8.023,10.792 v 0 c 0.827,1.808 2.391,3.294 4.688,4.463 v 0 c 2.298,1.166 4.934,2.24 7.91,3.221 v 0 c 2.975,0.977 6.084,1.957 9.323,2.937 v 0 c 3.238,0.979 6.196,2.204 8.871,3.673 v 0 c 2.673,1.468 4.877,3.276 6.61,5.424 v 0 c 1.732,2.147 2.599,4.839 2.599,8.079 v 0 c 0,1.957 -0.452,3.822 -1.356,5.593 v 0 c -0.904,1.77 -2.203,3.333 -3.898,4.69 v 0 c -1.694,1.355 -3.785,2.429 -6.272,3.22 v 0 c -2.487,0.792 -5.311,1.186 -8.475,1.186 v 0 c -3.315,0 -6.666,-0.564 -10.056,-1.695 m -11.979,-28.588 c 0,4.896 0.679,9.191 2.035,12.882 v 0 c 1.356,3.69 3.106,6.779 5.254,9.266 v 0 c 2.147,2.486 4.537,4.35 7.174,5.593 v 0 c 2.638,1.243 5.2,1.864 7.685,1.864 v 0 c 4.746,0 8.154,-1.413 10.226,-4.237 v 0 c 2.072,-2.825 3.107,-6.497 3.107,-11.017 v 0 c 0,-3.091 -0.697,-5.65 -2.091,-7.684 v 0 c -1.392,-2.034 -3.181,-3.729 -5.367,-5.085 v 0 c -2.184,-1.356 -4.614,-2.486 -7.287,-3.39 v 0 c -2.675,-0.904 -5.254,-1.771 -7.741,-2.599 v 0 c -2.486,-0.83 -4.766,-1.695 -6.835,-2.599 v 0 c -2.074,-0.904 -3.637,-2.073 -4.691,-3.503 v 0 c -0.98,3.165 -1.469,6.667 -1.469,10.509 m 101.02,29.719 v -0.678 c 2.259,0 3.803,-0.359 4.632,-1.074 v 0 c 0.828,-0.717 1.242,-2.054 1.242,-4.011 v 0 -46.669 c 0,-1.959 -0.414,-3.296 -1.242,-4.011 v 0 c -0.829,-0.716 -2.373,-1.073 -4.632,-1.073 v 0 -0.678 h 18.532 v 0.678 c -2.26,0 -3.804,0.357 -4.634,1.073 v 0 c -0.829,0.715 -1.242,2.052 -1.242,4.011 v 0 52.432 z"
                 style="fill:url(#linearGradient36);stroke:none"
                 id="path38" /></g></g></g></g></g></g></svg>
